<svg width="36" height="36" viewBox="0 0 36 36" fill="none" xmlns="http://www.w3.org/2000/svg">
<path d="M8.15625 32.1604H27.8438" stroke="white" stroke-width="2" stroke-linecap="round" stroke-linejoin="round"/>
<path d="M18 19.0354C20.4162 19.0354 22.375 17.0766 22.375 14.6604C22.375 12.2442 20.4162 10.2854 18 10.2854C15.5838 10.2854 13.625 12.2442 13.625 14.6604C13.625 17.0766 15.5838 19.0354 18 19.0354Z" stroke="white" stroke-width="2" stroke-linecap="round" stroke-linejoin="round"/>
<path d="M28.9375 14.6604C28.9375 24.5042 18 32.1604 18 32.1604C18 32.1604 7.0625 24.5042 7.0625 14.6604C7.0625 11.7596 8.21484 8.9776 10.266 6.92642C12.3172 4.87524 15.0992 3.7229 18 3.7229C20.9008 3.7229 23.6828 4.87524 25.734 6.92642C27.7852 8.9776 28.9375 11.7596 28.9375 14.6604V14.6604Z" stroke="white" stroke-width="2" stroke-linecap="round" stroke-linejoin="round"/>
</svg>
