<svg width="36" height="36" viewBox="0 0 36 36" fill="none" xmlns="http://www.w3.org/2000/svg">
<path d="M13.3595 25.6756C11.8127 30.316 5.62549 30.316 5.62549 30.316C5.62549 30.316 5.62549 24.1288 10.2659 22.582" stroke="white" stroke-width="2" stroke-linecap="round" stroke-linejoin="round"/>
<path d="M27.2809 14.8481L18.0002 24.1289L11.813 17.9417L21.0938 8.6609C24.608 5.14666 28.1222 5.18094 29.621 5.40455C29.8517 5.43895 30.0653 5.54657 30.2303 5.71154C30.3953 5.87652 30.5029 6.09012 30.5373 6.32088C30.7609 7.81961 30.7952 11.3338 27.2809 14.8481Z" stroke="white" stroke-width="2" stroke-linecap="round" stroke-linejoin="round"/>
<path d="M25.734 16.3948V25.2225C25.734 25.3661 25.7057 25.5084 25.6507 25.6411C25.5958 25.7738 25.5152 25.8943 25.4136 25.9959L20.9919 30.4176C20.8519 30.5576 20.6766 30.657 20.4845 30.7051C20.2925 30.7533 20.091 30.7484 19.9016 30.691C19.7121 30.6337 19.5417 30.526 19.4087 30.3794C19.2756 30.2328 19.1848 30.0529 19.146 29.8587L18 24.1288" stroke="white" stroke-width="2" stroke-linecap="round" stroke-linejoin="round"/>
<path d="M19.5468 10.2078H10.7191C10.5755 10.2078 10.4332 10.2361 10.3005 10.291C10.1678 10.346 10.0473 10.4266 9.94569 10.5281L5.52397 14.9498C5.38398 15.0898 5.28461 15.2652 5.23646 15.4572C5.18831 15.6492 5.19318 15.8507 5.25054 16.0402C5.30791 16.2297 5.41563 16.4 5.56221 16.5331C5.70879 16.6661 5.88874 16.7569 6.08286 16.7957L11.8128 17.9417" stroke="white" stroke-width="2" stroke-linecap="round" stroke-linejoin="round"/>
</svg>
