<svg width="42" height="36" viewBox="0 0 42 36" fill="none" xmlns="http://www.w3.org/2000/svg">
<path d="M11.5312 22.3167C15.4576 22.3167 18.6406 19.1337 18.6406 15.2073C18.6406 11.2809 15.4576 8.0979 11.5312 8.0979C7.60485 8.0979 4.42188 11.2809 4.42188 15.2073C4.42188 19.1337 7.60485 22.3167 11.5312 22.3167Z" stroke="white" stroke-width="2" stroke-miterlimit="10"/>
<path d="M20.748 8.36264C21.7259 8.08714 22.7514 8.02437 23.7556 8.17858C24.7597 8.33279 25.7191 8.70039 26.5692 9.25662C27.4193 9.81285 28.1404 10.5448 28.6838 11.4032C29.2272 12.2615 29.5804 13.2264 29.7195 14.2327C29.8586 15.239 29.7804 16.2635 29.4903 17.2371C29.2001 18.2107 28.7047 19.1108 28.0374 19.8768C27.3701 20.6428 26.5464 21.2569 25.6217 21.6778C24.6971 22.0986 23.693 22.3165 22.6771 22.3166" stroke="white" stroke-width="2" stroke-linecap="round" stroke-linejoin="round"/>
<path d="M1.68701 27.4295C2.79735 25.8501 4.2714 24.5611 5.9847 23.6712C7.698 22.7813 9.60026 22.3167 11.5309 22.3167C13.4615 22.3166 15.3638 22.781 17.0772 23.6708C18.7905 24.5605 20.2647 25.8494 21.3751 27.4287" stroke="white" stroke-width="2" stroke-linecap="round" stroke-linejoin="round"/>
<path d="M22.6768 22.3167C24.6076 22.3153 26.5103 22.7791 28.2238 23.669C29.9373 24.5588 31.4111 25.8485 32.5205 27.4287" stroke="white" stroke-width="2" stroke-linecap="round" stroke-linejoin="round"/>
</svg>
