<svg width="36" height="36" viewBox="0 0 36 36" fill="none" xmlns="http://www.w3.org/2000/svg">
<path d="M18 31.0667C25.2487 31.0667 31.125 25.1904 31.125 17.9417C31.125 10.6929 25.2487 4.81665 18 4.81665C10.7513 4.81665 4.875 10.6929 4.875 17.9417C4.875 25.1904 10.7513 31.0667 18 31.0667Z" stroke="white" stroke-width="2" stroke-miterlimit="10"/>
<path d="M18 22.3167C21.0203 22.3167 23.4688 19.8682 23.4688 16.8479C23.4688 13.8276 21.0203 11.3792 18 11.3792C14.9797 11.3792 12.5312 13.8276 12.5312 16.8479C12.5312 19.8682 14.9797 22.3167 18 22.3167Z" stroke="white" stroke-width="2" stroke-miterlimit="10"/>
<path d="M9.22266 27.6998C10.0465 26.08 11.3026 24.7197 12.8518 23.7696C14.4009 22.8195 16.1828 22.3167 18.0001 22.3167C19.8174 22.3166 21.5993 22.8195 23.1485 23.7696C24.6976 24.7197 25.9537 26.08 26.7776 27.6998" stroke="white" stroke-width="2" stroke-linecap="round" stroke-linejoin="round"/>
</svg>
